<?xml version="1.0" encoding="UTF-8"?>
<!DOCTYPE svg PUBLIC "-//W3C//DTD SVG 1.1//EN" "http://www.w3.org/Graphics/SVG/1.1/DTD/svg11.dtd">
<svg version="1.1" xmlns="http://www.w3.org/2000/svg" xmlns:xlink="http://www.w3.org/1999/xlink" x="0" y="0" width="350" height="491" viewBox="0, 0, 350, 491">
  <g id="Layer_1">
    <path d="M338.664,48.471 C338.256,51.813 337.609,55.103 336.853,58.354 C336.096,61.605 335.153,64.798 334.146,67.96 C333.116,71.116 331.962,74.221 330.735,77.29 C329.482,80.349 328.15,83.368 326.747,86.35 C325.316,89.321 323.829,92.257 322.247,95.142 C319.088,100.911 315.642,106.511 311.891,111.895 C308.148,117.282 304.112,122.464 299.769,127.366 C295.412,132.253 290.768,136.904 285.639,140.948 C289.507,135.695 293.172,130.401 296.638,124.988 C300.106,119.582 303.43,114.11 306.567,108.542 C307.355,107.154 308.137,105.762 308.894,104.356 C309.665,102.961 310.422,101.557 311.171,100.15 C312.65,97.326 314.12,94.503 315.514,91.643 C316.911,88.786 318.298,85.928 319.579,83.025 C320.893,80.139 322.145,77.227 323.321,74.291 C324.528,71.368 325.639,68.411 326.671,65.436 C327.729,62.47 328.66,59.468 329.523,56.458 C331.225,50.435 332.519,44.316 332.983,38.191 C333.095,36.659 333.149,35.134 333.148,33.607 C333.132,32.849 333.109,32.088 333.068,31.329 C332.993,30.58 332.986,29.812 332.875,29.069 C332.529,26.072 331.867,23.113 330.66,20.368 C329.509,17.59 327.755,15.079 325.57,12.879 C323.337,10.735 320.657,8.943 317.717,7.525 C320.918,8.122 324.091,9.295 326.953,11.145 C329.779,13.025 332.284,15.555 334.112,18.526 C335.063,19.994 335.802,21.577 336.476,23.183 C336.782,23.994 337.107,24.808 337.341,25.641 C337.465,26.055 337.6,26.47 337.715,26.887 L338.028,28.144 C338.848,31.51 339.183,34.943 339.251,38.345 C339.31,41.75 339.097,45.134 338.664,48.471 M331.452,6.914 C323.716,1.884 306.823,-3.681 280.621,15.573 C265.834,26.438 250.601,43.326 237.728,63.126 C228.468,77.366 221.095,92.105 216.214,105.932 C216.384,105.852 216.553,105.773 216.722,105.692 C217.681,105.251 218.673,104.906 219.651,104.507 C220.643,104.152 221.65,103.846 222.651,103.514 C223.664,103.227 224.68,102.947 225.701,102.686 L228.788,102.009 C229.825,101.82 230.868,101.667 231.907,101.495 C232.951,101.345 234.001,101.239 235.048,101.112 C236.095,100.994 237.151,100.973 238.204,100.9 C239.255,100.82 240.312,100.827 241.367,100.826 C241.895,100.832 242.422,100.823 242.949,100.842 L244.531,100.93 L246.11,101.021 C246.636,101.059 247.161,101.147 247.684,101.207 C250.302,101.516 252.912,102.019 255.429,102.793 C258.728,95.965 262.655,88.999 267.072,82.206 C276.101,68.321 286.615,55.986 296.68,47.473 C303.213,41.948 308.182,39.21 311.261,37.97 C311.376,41.287 310.891,46.939 308.49,55.152 C304.792,67.805 297.785,82.42 288.757,96.305 C285.555,101.23 282.163,105.953 278.674,110.386 C278.499,110.773 278.312,111.152 278.089,111.512 C277.861,111.92 277.627,112.328 277.386,112.729 L276.606,113.894 C276.091,114.68 275.518,115.414 274.95,116.157 C274.396,116.911 273.781,117.612 273.179,118.324 L272.273,119.391 L271.326,120.417 C270.69,121.098 270.063,121.787 269.406,122.446 C268.106,123.779 266.745,125.048 265.393,126.326 C263.996,127.555 262.607,128.792 261.164,129.966 C260.446,130.557 259.711,131.128 258.973,131.695 L257.868,132.548 C257.495,132.826 257.109,133.09 256.731,133.361 C255.226,134.454 253.668,135.482 252.062,136.434 L251.932,136.509 L250.847,137.13 C250.531,137.307 250.203,137.466 249.877,137.626 L249.982,137.752 C247.801,139.08 245.983,139.972 244.568,140.541 C244.515,139.026 244.591,137.019 244.914,134.51 C243.257,134.162 241.573,134.142 239.918,134.33 C237.874,134.56 235.872,135.067 233.909,135.683 C231.954,136.329 230.021,137.054 228.146,137.926 C226.266,138.778 224.415,139.706 222.618,140.732 C220.804,141.727 219.034,142.806 217.313,143.959 C215.577,145.09 213.915,146.327 212.276,147.596 C211.646,148.097 211.026,148.609 210.414,149.133 C212.743,161.791 219.419,168.373 224.376,171.596 C229.413,174.871 238.332,178.365 251.17,175.099 C251.119,175.276 251.072,175.45 251.02,175.627 C251.522,175.326 252.028,175.024 252.533,174.727 C255.089,173.222 257.657,171.768 260.219,170.307 C261.028,169.832 261.842,169.365 262.661,168.91 L265.093,167.497 C266.713,166.556 268.34,165.627 269.936,164.648 C270.748,164.183 271.549,163.699 272.346,163.211 L273.545,162.483 L274.732,161.738 C275.533,161.254 276.327,160.761 277.107,160.248 C277.895,159.743 278.682,159.24 279.458,158.722 C281.759,157.178 284.047,155.621 286.184,153.847 C286.423,153.647 286.658,153.441 286.895,153.236 L286.894,153.182 C297.829,142.995 308.607,129.987 318.102,115.385 C330.976,95.586 340.23,74.811 344.162,56.888 C351.13,25.127 339.19,11.945 331.452,6.914 M204.613,254.432 C204.204,257.772 203.558,261.065 202.801,264.313 C202.044,267.565 201.101,270.758 200.095,273.922 C199.063,277.077 197.909,280.182 196.685,283.25 C195.431,286.309 194.099,289.33 192.695,292.311 C191.265,295.282 189.776,298.219 188.194,301.102 C185.036,306.871 181.589,312.471 177.839,317.856 C174.097,323.243 170.061,328.424 165.716,333.327 C161.36,338.213 156.716,342.864 151.587,346.909 C155.455,341.657 159.12,336.362 162.585,330.95 C166.055,325.541 169.378,320.069 172.515,314.502 C173.303,313.114 174.085,311.721 174.841,310.317 C175.613,308.92 176.37,307.518 177.119,306.112 C178.598,303.287 180.068,300.463 181.461,297.604 C182.858,294.748 184.246,291.889 185.526,288.987 C186.841,286.098 188.093,283.188 189.269,280.252 C190.476,277.328 191.587,274.371 192.619,271.397 C193.677,268.43 194.607,265.428 195.472,262.418 C197.173,256.397 198.468,250.277 198.933,244.152 C199.044,242.62 199.099,241.094 199.097,239.568 C199.081,238.808 199.058,238.049 199.017,237.29 C198.942,236.541 198.935,235.772 198.823,235.029 C198.478,232.032 197.816,229.073 196.608,226.328 C195.457,223.551 193.704,221.04 191.519,218.84 C189.285,216.696 186.604,214.904 183.665,213.485 C186.866,214.084 190.038,215.256 192.9,217.105 C195.728,218.986 198.231,221.516 200.06,224.487 C201.013,225.954 201.75,227.538 202.424,229.143 C202.729,229.954 203.056,230.768 203.288,231.6 C203.413,232.016 203.547,232.431 203.663,232.848 L203.977,234.105 C204.796,237.471 205.131,240.903 205.199,244.306 C205.258,247.71 205.045,251.095 204.613,254.432 M102.96,328.2 C94.564,329.207 86.563,331.852 79.096,335.721 L79.062,335.741 C71.602,339.606 64.664,344.637 58.142,350.319 C54.869,353.161 51.705,356.178 48.592,359.303 C45.467,362.422 42.446,365.684 39.321,368.975 C40.151,366.864 41.096,364.799 42.145,362.791 L42.937,361.282 L43.773,359.799 C44.325,358.803 44.93,357.844 45.525,356.873 C47.945,353.016 50.686,349.342 53.712,345.883 C59.776,338.996 67.056,332.957 75.416,328.62 L77,327.84 C77.529,327.58 78.052,327.315 78.599,327.09 L80.222,326.387 C80.367,326.325 80.512,326.262 80.656,326.202 C81.052,326.03 81.45,325.86 81.859,325.719 C84.073,324.897 86.323,324.157 88.618,323.582 C93.207,322.438 97.943,321.846 102.648,321.918 C107.724,321.979 112.723,322.807 117.466,324.284 C121.531,325.549 125.407,327.289 128.975,329.452 C127.842,329.299 126.733,329.112 125.631,328.926 L124.809,328.78 L123.977,328.676 L122.324,328.459 L120.686,328.237 L119.041,328.096 C118.136,328.02 117.242,327.911 116.341,327.868 C116.154,327.858 115.965,327.848 115.777,327.846 C111.441,327.598 107.156,327.666 102.96,328.2 M213.388,254.672 C213.724,252.33 213.97,249.98 214.158,247.627 C214.368,245.274 214.458,242.917 214.496,240.557 C214.502,237.522 214.366,234.476 213.913,231.463 C211.228,220.366 205.092,214.425 200.458,211.412 C195.415,208.133 186.478,204.632 173.609,207.922 C173.571,208.111 173.534,208.301 173.499,208.491 C173.356,209.307 173.239,210.127 173.149,210.949 C172.951,212.591 172.845,214.242 172.756,215.89 C172.594,219.185 172.634,222.482 172.86,225.753 C173.101,229.022 173.552,232.271 174.38,235.43 C175.153,238.268 176.23,241.034 177.857,243.572 C178.755,243.117 179.563,242.751 180.267,242.468 C180.278,242.809 180.282,243.183 180.279,243.575 C180.411,244.083 180.497,244.603 180.562,245.123 C180.671,245.968 180.69,246.816 180.702,247.665 C180.69,249.358 180.563,251.048 180.338,252.721 C179.891,256.067 179.156,259.37 178.165,262.592 C177.181,265.817 175.947,268.971 174.419,271.983 C173.217,274.344 171.833,276.649 170.134,278.684 C166.691,285.998 162.511,293.5 157.762,300.801 C153.008,308.114 147.84,314.989 142.543,321.11 L142.505,321.182 C142.292,321.592 142.067,322 141.841,322.407 L141.11,323.586 C140.625,324.377 140.089,325.131 139.556,325.887 C139.035,326.653 138.46,327.375 137.894,328.104 L137.043,329.202 C136.752,329.559 136.449,329.905 136.152,330.26 C135.553,330.961 134.965,331.674 134.345,332.356 C133.119,333.735 131.833,335.057 130.552,336.383 C129.228,337.666 127.909,338.957 126.532,340.184 C125.849,340.803 125.146,341.403 124.439,341.996 L123.381,342.889 C123.025,343.182 122.652,343.457 122.289,343.743 C120.841,344.889 119.335,345.969 117.772,346.963 L116.589,347.692 C116.191,347.926 115.775,348.141 115.364,348.354 C114.561,348.811 113.676,349.137 112.821,349.461 C113.586,348.932 114.362,348.471 115.069,347.885 C115.425,347.598 115.799,347.342 116.149,347.053 L117.194,346.17 C117.904,345.608 118.575,344.985 119.256,344.383 C119.942,343.789 120.609,343.168 121.28,342.553 C121.953,341.942 122.607,341.307 123.273,340.688 C123.939,340.069 124.599,339.444 125.243,338.797 C126.563,337.545 127.853,336.26 129.138,334.971 L131.064,333.037 L132.96,331.073 C133.606,330.43 134.22,329.76 134.846,329.098 C135.471,328.436 136.094,327.772 136.707,327.1 L137.632,326.096 L137.804,325.901 C135.505,323.471 132.955,321.325 130.17,319.514 C127.374,317.696 124.363,316.231 121.192,315.114 L120.931,315.057 C117.912,314.455 114.887,314.065 111.849,313.868 L110.375,313.774 L108.896,313.741 C107.912,313.719 106.929,313.676 105.943,313.727 C103.974,313.739 102.006,313.846 100.044,314.012 C99.064,314.108 98.082,314.186 97.103,314.293 L94.173,314.692 L91.255,315.178 C90.292,315.385 89.325,315.58 88.354,315.768 C86.559,316.176 84.777,316.639 83.014,317.178 C82.494,317.338 81.975,317.504 81.458,317.68 C79.008,318.688 76.545,319.838 74.072,321.137 C56.181,330.532 39.034,346.922 25.792,367.289 C12.549,387.655 4.525,409.977 3.197,430.143 C2.49,440.875 3.687,450.612 6.757,459.08 C10.316,468.901 16.442,476.852 24.473,482.075 C32.503,487.295 42.256,489.668 52.677,488.938 C61.662,488.307 71.047,485.452 80.57,480.452 C98.462,471.055 115.609,454.664 128.851,434.299 C142.093,413.932 150.118,391.61 151.446,371.446 C151.649,368.366 151.689,365.371 151.58,362.463 C151.224,362.801 150.861,363.135 150.499,363.463 C149.024,364.703 147.496,365.887 145.896,366.948 L144.703,367.76 L143.484,368.524 C142.673,369.037 141.851,369.532 141.026,370.016 C140.205,370.512 139.363,370.969 138.524,371.428 C138.093,371.666 137.659,371.895 137.227,372.129 C136.818,372.352 136.412,372.578 136,372.793 C134.299,373.67 132.588,374.52 130.867,375.35 C129.132,376.147 127.409,376.969 125.649,377.709 C124.934,378.018 124.216,378.321 123.497,378.621 C121.432,379.483 119.348,380.301 117.238,381.061 C114.791,391.731 109.835,403.973 101.627,416.598 C80.172,449.594 52.084,461.293 42.174,454.85 C32.264,448.405 31.561,417.989 53.016,384.991 C59.222,375.446 65.983,367.694 72.699,361.637 C74.023,359.979 75.495,358.438 77.066,357.016 C77.896,356.246 78.764,355.52 79.65,354.819 C80.435,354.2 81.234,353.598 82.042,353.008 C83.777,351.774 85.592,350.651 87.444,349.596 C89.314,348.575 91.226,347.621 93.199,346.803 C95.178,346.002 97.202,345.287 99.29,344.795 C101.372,344.284 103.515,343.969 105.669,343.965 C107.812,343.995 110.014,344.368 111.864,345.411 C109.844,344.782 107.758,344.707 105.718,344.94 C103.676,345.17 101.673,345.676 99.71,346.293 C97.755,346.94 95.821,347.662 93.947,348.536 C92.066,349.387 90.216,350.317 88.418,351.342 C86.605,352.338 84.834,353.416 83.114,354.569 C82.082,355.241 81.079,355.953 80.089,356.684 C82.852,367.368 88.839,373.139 93.381,376.094 C98.051,379.127 106.058,382.35 117.427,380.203 L117.375,380.444 C117.583,380.325 117.793,380.209 118.002,380.09 C120.309,378.786 122.638,377.534 124.974,376.301 L135.074,371.022 C135.922,370.596 136.76,370.155 137.596,369.709 L138.854,369.047 L140.101,368.37 C140.94,367.93 141.775,367.483 142.597,367.018 C143.424,366.557 144.253,366.104 145.07,365.631 C147.381,364.278 149.7,362.93 151.842,361.321 C164.153,350.682 176.44,336.289 187.106,319.883 C196.667,305.18 204.226,289.944 209.096,275.733 L209.147,275.549 C209.787,273.262 210.341,270.955 210.866,268.645 C211.364,266.328 211.868,264.012 212.27,261.68 C212.698,259.352 213.082,257.016 213.388,254.672 M83.67,315.786 C83.579,315.823 83.487,315.86 83.395,315.895 C88.157,300.537 96.243,283.756 106.733,267.621 C116.189,253.08 126.917,240.12 137.808,229.951 C137.85,230.668 137.898,231.385 137.983,232.098 C138.093,233.167 138.192,234.241 138.386,235.301 C138.553,236.365 138.718,237.43 138.951,238.482 C139.164,239.54 139.397,240.593 139.69,241.631 C139.974,242.671 140.226,243.721 140.575,244.742 C141.227,246.801 142.008,248.815 142.847,250.803 L144.232,253.729 C144.729,254.684 145.266,255.623 145.795,256.561 C147.642,259.696 149.798,262.643 152.244,265.305 C146.617,271.694 141.116,278.955 136.079,286.702 C130.072,295.942 124.968,305.498 121.129,314.59 C118.204,313.479 115.12,312.752 112.007,312.323 L110.5,312.106 L108.986,311.995 C107.976,311.924 106.964,311.834 105.951,311.838 C103.923,311.782 101.898,311.887 99.876,312.02 C98.87,312.129 97.862,312.229 96.857,312.354 C95.857,312.512 94.855,312.655 93.857,312.825 L90.889,313.465 C89.907,313.713 88.931,313.983 87.958,314.258 C86.998,314.582 86.029,314.871 85.081,315.221 L83.67,315.786 z M284.688,156.261 C285.453,155.488 286.204,154.697 286.902,153.865 C286.918,155.993 286.858,158.163 286.712,160.378 C285.385,180.543 277.36,202.864 264.117,223.231 C250.875,243.598 233.729,259.989 215.837,269.383 C214.434,270.12 213.033,270.805 211.638,271.448 C211.896,270.645 212.146,269.842 212.377,269.034 C213.064,266.731 213.61,264.391 214.128,262.045 C214.619,259.692 215.025,257.323 215.368,254.94 C215.671,252.553 215.916,250.158 216.043,247.752 C216.147,245.345 216.197,242.932 216.05,240.52 C215.925,238.11 215.629,235.705 215.139,233.34 C214.979,232.608 214.792,231.882 214.591,231.159 C222.157,224.814 229.879,216.318 236.894,205.53 C243.652,195.134 248.209,184.997 250.975,175.782 C254.376,174.615 257.691,173.223 260.94,171.691 C262.659,170.902 264.332,170.021 266.013,169.153 C267.677,168.253 269.328,167.327 270.959,166.366 C271.772,165.882 272.574,165.378 273.374,164.871 C274.177,164.367 274.98,163.865 275.759,163.323 C276.545,162.793 277.324,162.253 278.091,161.692 L279.245,160.861 L280.368,159.982 C281.877,158.831 283.307,157.566 284.688,156.261 M179.021,148.382 L179.812,146.874 L180.647,145.391 C181.2,144.395 181.805,143.436 182.4,142.464 C184.819,138.608 187.56,134.934 190.587,131.475 C196.651,124.589 203.93,118.55 212.291,114.211 L213.771,113.482 L213.875,113.431 C214.403,113.174 214.927,112.906 215.474,112.682 L217.097,111.979 C217.638,111.747 218.174,111.502 218.734,111.311 C220.948,110.488 223.198,109.749 225.492,109.174 C230.081,108.031 234.817,107.438 239.522,107.508 C243.929,107.563 248.275,108.195 252.449,109.325 C257.204,110.612 261.73,112.547 265.85,115.043 C264.717,114.892 263.607,114.703 262.505,114.518 L261.684,114.371 L260.851,114.268 L259.198,114.052 L257.561,113.829 L255.914,113.687 C254.82,113.597 253.745,113.448 252.651,113.438 C252.029,113.402 251.409,113.375 250.789,113.353 C247.088,113.222 243.429,113.335 239.835,113.792 C231.438,114.799 223.437,117.443 215.97,121.313 C214.347,122.153 212.754,123.058 211.179,124.003 C205.503,127.41 200.13,131.455 195.017,135.911 C191.743,138.753 188.579,141.768 185.466,144.894 C182.341,148.015 179.321,151.276 176.194,154.567 C177.026,152.457 177.97,150.391 179.021,148.382 M139.05,228.802 C139.191,229.836 139.347,230.865 139.524,231.891 C139.712,232.928 139.883,233.967 140.107,234.995 C140.316,236.026 140.521,237.057 140.794,238.072 L141.164,239.605 C141.274,240.118 141.44,240.617 141.576,241.125 C141.867,242.133 142.126,243.151 142.48,244.14 L142.96,245.639 L143.199,246.39 L143.475,247.126 C143.849,248.106 144.2,249.096 144.592,250.067 L145.813,252.973 C146.266,253.918 146.726,254.864 147.169,255.819 C148.748,258.975 150.55,262.024 152.493,265.022 L152.503,265.037 C154.697,267.297 157.114,269.299 159.739,271.006 C163.173,273.239 166.923,274.946 170.903,276.118 C171.657,274.545 172.346,272.95 172.998,271.34 C174.228,268.282 175.28,265.157 176.253,262.006 C177.219,258.854 178.085,255.67 178.806,252.452 C179.155,250.842 179.49,249.224 179.728,247.593 C179.857,246.779 179.952,245.96 180.011,245.138 L180.022,244.924 C179.421,244.749 178.851,244.539 178.326,244.279 L178.399,244.391 L178.212,244.215 C177.948,244.08 177.688,243.942 177.445,243.785 L177.64,243.682 C175.476,241.549 173.94,238.77 172.892,235.898 C171.737,232.675 171.104,229.287 170.866,225.897 C170.628,222.505 170.747,219.099 171.208,215.745 C171.433,214.067 171.759,212.403 172.189,210.765 C172.425,209.949 172.66,209.135 172.968,208.342 C173.005,208.248 173.045,208.154 173.083,208.059 L172.999,208.084 C175.549,197.742 180.425,186.008 188.282,173.923 C193.785,165.46 199.724,158.408 205.681,152.693 C206.062,152.133 206.462,151.585 206.878,151.051 C207.887,149.787 208.981,148.593 210.138,147.465 C210.508,147.106 210.884,146.753 211.265,146.406 C212.83,144.956 214.52,143.654 216.241,142.399 C217.978,141.163 219.791,140.041 221.644,138.986 C223.514,137.965 225.425,137.012 227.397,136.192 C229.378,135.391 231.401,134.678 233.49,134.186 C235.571,133.675 237.714,133.359 239.868,133.355 C241.595,133.378 243.356,133.634 244.945,134.274 C245.328,134.428 245.705,134.599 246.063,134.801 L245.799,134.728 C246.502,134.981 247.153,135.291 247.735,135.67 C248.358,136.075 248.944,136.575 249.491,137.164 C249.803,136.935 250.12,136.718 250.426,136.48 L251.509,135.622 C252.244,135.075 252.945,134.476 253.656,133.894 C254.37,133.32 255.072,132.724 255.773,132.13 L257.866,130.337 C258.564,129.741 259.26,129.141 259.938,128.521 C261.327,127.319 262.688,126.085 264.046,124.848 L266.079,122.989 C266.76,122.372 267.403,121.718 268.082,121.099 C268.764,120.482 269.414,119.837 270.073,119.197 C270.733,118.559 271.392,117.921 272.036,117.268 C272.612,116.703 273.176,116.124 273.731,115.54 C271.266,112.813 268.49,110.431 265.437,108.446 C262.229,106.36 258.742,104.737 255.051,103.576 L255.076,103.521 C252.577,103.121 250.067,102.877 247.555,102.756 C247.041,102.737 246.53,102.688 246.015,102.69 L244.472,102.677 L242.933,102.66 C242.419,102.665 241.905,102.697 241.391,102.714 C239.337,102.753 237.284,102.902 235.239,103.101 C234.218,103.216 233.191,103.298 232.173,103.432 L229.116,103.874 L226.073,104.398 C225.069,104.619 224.06,104.826 223.047,105.023 C220.616,105.583 218.202,106.215 215.832,107.012 L215.606,107.085 C213.525,107.977 211.437,108.968 209.34,110.069 C191.447,119.464 174.302,135.855 161.059,156.222 C147.816,176.588 139.792,198.91 138.464,219.074 C138.41,219.888 138.371,220.693 138.34,221.494 C138.424,222.873 138.524,224.248 138.662,225.616 C138.778,226.682 138.906,227.743 139.05,228.802" fill="#0B0B09"/>
  </g>
</svg>
